<svg id="Layer_1_1_" enable-background="new 0 0 64 64" height="512" viewBox="0 0 64 64" width="512" xmlns="http://www.w3.org/2000/svg"><path d="m32 3c-16.016 0-29 11.641-29 26s12.984 26 29 26 29-11.641 29-26-12.984-26-29-26zm2.5 46c-12.426 0-22.5-8.283-22.5-18.5s10.074-18.5 22.5-18.5 22.5 8.283 22.5 18.5-10.074 18.5-22.5 18.5z" fill="#9e919d"/><path d="m34 54.932v-5.942c-4.435-.08-8.554-1.21-12-3.107v7.529c3.117 1.027 6.485 1.588 10 1.588.673 0 1.338-.028 2-.068z" fill="#68607c"/><path d="m47.572 45.553c-3.275 1.926-7.202 3.147-11.459 3.395l3.251 5.204c3.944-.926 7.557-2.581 10.658-4.79-1.168-1.839-2.056-3.223-2.45-3.809z" fill="#68607c"/><path d="m55 61h-9l-8.82-14.12c-.74-1.17-2.02-1.88-3.4-1.88h-1.78v15c0 .55-.45 1-1 1h-6c-.55 0-1-.45-1-1v-40c0-.55.45-1 1-1h17c6.08 0 11 4.92 11 11v2c0 3.04-1.23 5.79-3.22 7.78s-4.74 3.22-7.78 3.22c1.45.97 2.73 2.15 3.8 3.5.4.5 9.2 14.5 9.2 14.5zm-10-29c0-1.38-.56-2.63-1.46-3.54-.91-.9-2.16-1.46-3.54-1.46h-8v10h8c2.76 0 5-2.24 5-5z" fill="#4e9bb9"/></svg>